<svg xmlns="http://www.w3.org/2000/svg" width="50" height="50" viewBox="0 0 512 512"><title>&quot;Puzzle Logo&quot;</title><path d="M50 50v412h412V50H50zm17.167 17.167H256v60.938c0 16 9.874 23.294 19.044 23.294 5.7 0 11.534-2.676 16.362-7.52 4.86-5.08 6.672-8.048 13.48-8.048 8.08 0 19.78 9.17 19.78 25.75s-11.7 25.75-19.78 25.75c-6.808 0-8.6-2.967-13.48-8.04-4.828-4.853-10.662-7.526-16.362-7.526-9.17 0-19.044 7.292-19.044 23.294V256h-60.938c-9.195 0-7.544-2.38-1.86-7.795 4.492-4.208 11.298-10.578 11.298-23.923 0-17.837-17.234-36.948-42.917-36.948s-42.917 19.11-42.917 36.948c0 13.345 6.806 19.715 11.3 23.923 5.707 5.44 7.3 7.795-1.862 7.795H67.167V67.167zm0 377.667V273.166h60.938c16.01 0 23.286-9.873 23.286-19.043 0-5.7-2.664-11.534-7.51-16.362-5.06-4.87-8.046-6.653-8.046-13.477 0-8.08 9.17-19.782 25.75-19.782s25.75 11.703 25.75 19.783c0 6.823-2.984 8.61-8.047 13.48-4.845 4.827-7.51 10.66-7.51 16.36 0 9.17 7.276 19.044 23.286 19.044H256v60.94c0 9.17-2.355 7.56-7.795 1.86-4.208-4.494-10.58-11.3-23.923-11.3-17.837 0-36.95 17.233-36.95 42.917 0 25.682 19.112 42.916 36.95 42.916 13.344 0 19.715-6.808 23.923-11.3 5.448-5.734 7.795-7.275 7.795 1.86v43.772H67.167zm377.666 0H273.166v-43.772c0-16.01-9.873-23.286-19.044-23.286-5.7 0-11.534 2.666-16.362 7.512-4.87 5.08-6.672 8.047-13.48 8.047-8.08 0-19.78-9.17-19.78-25.75s11.7-25.75 19.78-25.75c6.807 0 8.6 2.967 13.48 8.047 4.828 4.844 10.662 7.51 16.362 7.51 9.17 0 19.044-7.275 19.044-23.285v-60.94h60.94c9.202 0 7.542 2.382 1.86 7.797-4.494 4.208-11.3 10.58-11.3 23.923 0 17.838 17.233 36.95 42.916 36.95s42.917-19.112 42.917-36.95c0-13.344-6.81-19.715-11.3-23.923-5.7-5.448-7.31-7.796 1.86-7.796h43.77v171.666zM401.063 256c-16.01 0-23.287 9.874-23.287 19.045 0 5.7 2.666 11.533 7.51 16.36 5.064 4.862 8.048 6.656 8.048 13.48 0 8.08-9.17 19.78-25.75 19.78s-25.75-11.7-25.75-19.78c0-6.823 2.984-8.617 8.047-13.48 4.847-4.827 7.513-10.66 7.513-16.36 0-9.17-7.275-19.045-23.285-19.045h-60.94v-60.938c0-9.178 2.356-7.552 7.797-1.87 4.208 4.502 10.578 11.31 23.923 11.31 17.837 0 36.948-17.243 36.948-42.918s-19.11-42.917-36.948-42.917c-13.345 0-19.715 6.807-23.923 11.308-5.448 5.725-7.796 7.276-7.796-1.87V67.168h171.666V256h-43.773z" fill="#f8981c"/></svg>